<svg width="173" height="33" fill="none" xmlns="http://www.w3.org/2000/svg">
  <path d="M4.19 32.6l2.4-6.87h10.22l2.4 6.88h4.18l-9.41-26H9.42L0 32.62h4.19zm3.55-10.17l3.86-11.1h.2l3.86 11.1H7.74zM26.86 32.6h3.82V20.7c0-2.55 1.98-4.39 4.7-4.39.78 0 1.68.14 1.99.23v-3.63a15.6 15.6 0 00-1.63-.09 5.1 5.1 0 00-4.98 3.39h-.2v-3.1h-3.7v19.5zM48.23 33c5.54 0 9.15-4.02 9.15-10.05 0-6.07-3.61-10.09-9.15-10.09-5.53 0-9.14 4.02-9.14 10.09 0 6.03 3.61 10.05 9.14 10.05zm.02-3.19c-3.62 0-5.3-3.13-5.3-6.87 0-3.73 1.68-6.9 5.3-6.9 3.59 0 5.27 3.17 5.27 6.9 0 3.74-1.68 6.87-5.27 6.87zM74.08 24.52a4.6 4.6 0 01-4.62 4.89c-2.36 0-4-1.7-4-4.35V13.1h-3.81v12.4c0 4.84 2.67 7.35 6.43 7.35 2.96 0 4.96-1.55 5.87-3.63h.2v3.38h3.76V13.1h-3.83v11.41zM86.86 21.03c0-3.1 1.92-4.88 4.57-4.88 2.6 0 4.17 1.68 4.17 4.51v11.95h3.82V20.2c0-4.82-2.67-7.35-6.68-7.35-2.95 0-4.88 1.36-5.79 3.43h-.24V13.1h-3.67v19.5h3.82V21.03zM111.89 32.99a6 6 0 005.67-3.42h.32v3.04h3.73v-26h-3.82v9.66h-.23c-.69-1.2-2-3.41-5.65-3.41-4.74 0-8.22 3.72-8.22 10.04 0 6.3 3.43 10.09 8.2 10.09zm.84-3.24c-3.4 0-5.19-2.98-5.19-6.89 0-3.87 1.74-6.78 5.2-6.78 3.33 0 5.12 2.7 5.12 6.78 0 4.1-1.83 6.9-5.13 6.9zM126.6 1.05h2.74v7.73h1.06V1.05h2.74V.12h-6.54v.93zM135.64 4.87c0-1.13.73-1.77 1.72-1.77.95 0 1.52.59 1.52 1.62v4.06h1V4.65c0-1.67-.9-2.45-2.23-2.45-1.03 0-1.62.43-1.93 1.1h-.08V.12h-1v8.66h1v-3.9zM144.46 8.92c1.33 0 2.3-.66 2.6-1.64L146.1 7c-.26.67-.85 1.01-1.64 1.01-1.18 0-1.99-.76-2.04-2.15h4.75v-.42c0-2.42-1.45-3.25-2.81-3.25-1.77 0-2.95 1.39-2.95 3.38 0 2 1.16 3.34 3.05 3.34zM142.42 5c.07-1.01.8-1.91 1.94-1.91 1.1 0 1.79.8 1.79 1.9h-3.73zM157.93.12v5.65c0 1.27-.88 2.18-2.33 2.18-1.46 0-2.34-.91-2.34-2.18V.12h-1.05v5.73c0 1.78 1.34 3.08 3.39 3.08s3.39-1.3 3.39-3.08V.12h-1.06zM161.28 8.85c.43 0 .77-.34.77-.76a.77.77 0 00-1.53 0c0 .42.34.76.76.76zM168.76 2.28h1.02C169.74.98 168.52 0 166.84 0s-2.99.96-2.99 2.42c0 1.17.86 1.86 2.22 2.25l1.07.3c.92.26 1.74.58 1.74 1.44 0 .95-.92 1.58-2.13 1.58-1.04 0-1.96-.46-2.04-1.44h-1.1c.1 1.42 1.27 2.38 3.14 2.38 2.01 0 3.15-1.1 3.15-2.5 0-1.62-1.55-2.15-2.45-2.39l-.89-.23c-.65-.17-1.68-.51-1.68-1.44 0-.83.76-1.44 1.92-1.44 1.06 0 1.86.5 1.96 1.35zM172.23 8.85c.43 0 .77-.34.77-.76a.77.77 0 00-1.53 0c0 .42.34.76.76.76z" fill="#fff"/>
</svg>
